<?xml version="1.0"?>
<!-- Generated by SVGo -->
<svg width="134.301mm" height="96.202mm"
     viewBox="0.000 0.000 134.301 96.202"
     xmlns="http://www.w3.org/2000/svg" 
     xmlns:xlink="http://www.w3.org/1999/xlink">
<polygon points="126.301,5.001 126.537,5.010 126.771,5.037 127.002,5.083 127.229,5.147 127.450,5.229 127.663,5.327 127.869,5.443 128.065,5.573 128.250,5.719 128.423,5.879 128.583,6.052 128.729,6.237 128.859,6.433 128.974,6.639 129.073,6.852 129.155,7.073 129.218,7.300 129.265,7.531 129.292,7.765 129.301,8.001 129.301,88.202 129.292,88.437 129.265,88.671 129.218,88.902 129.155,89.129 129.073,89.350 128.974,89.563 128.859,89.769 128.729,89.965 128.583,90.150 128.423,90.323 128.250,90.483 128.065,90.629 127.869,90.759 127.663,90.875 127.450,90.973 127.229,91.055 127.002,91.119 126.771,91.165 126.537,91.192 126.301,91.202 8.001,91.202 7.765,91.192 7.531,91.165 7.300,91.119 7.073,91.055 6.852,90.973 6.639,90.875 6.433,90.759 6.237,90.629 6.052,90.483 5.879,90.323 5.719,90.150 5.573,89.965 5.443,89.769 5.327,89.563 5.229,89.350 5.147,89.129 5.083,88.902 5.037,88.671 5.010,88.437 5.000,88.201 5.001,8.001 5.010,7.765 5.037,7.531 5.083,7.300 5.147,7.073 5.229,6.852 5.327,6.639 5.443,6.433 5.573,6.237 5.719,6.052 5.879,5.879 6.052,5.719 6.237,5.573 6.433,5.443 6.639,5.327 6.852,5.229 7.073,5.147 7.300,5.083 7.531,5.037 7.765,5.010 8.001,5.000" style="fill:none;stroke-width:0.050000mm;stroke:black"/>
<polygon points="107.775,69.676 107.775,83.676 121.775,83.676 121.775,69.676" style="fill:none;stroke-width:0.050000mm;stroke:black"/>
<polygon points="88.726,69.676 88.726,83.676 102.726,83.676 102.726,69.676" style="fill:none;stroke-width:0.050000mm;stroke:black"/>
<polygon points="69.676,69.676 69.676,83.676 83.676,83.676 83.676,69.676" style="fill:none;stroke-width:0.050000mm;stroke:black"/>
<polygon points="50.626,69.676 50.626,83.676 64.626,83.676 64.626,69.676" style="fill:none;stroke-width:0.050000mm;stroke:black"/>
<polygon points="31.576,69.676 31.576,83.676 45.576,83.676 45.576,69.676" style="fill:none;stroke-width:0.050000mm;stroke:black"/>
<polygon points="12.525,69.676 12.525,83.676 26.526,83.676 26.526,69.676" style="fill:none;stroke-width:0.050000mm;stroke:black"/>
<polygon points="107.775,50.626 107.775,64.626 121.775,64.626 121.775,50.626" style="fill:none;stroke-width:0.050000mm;stroke:black"/>
<polygon points="88.726,50.626 88.726,64.626 102.726,64.626 102.726,50.626" style="fill:none;stroke-width:0.050000mm;stroke:black"/>
<polygon points="69.676,50.626 69.676,64.626 83.676,64.626 83.676,50.626" style="fill:none;stroke-width:0.050000mm;stroke:black"/>
<polygon points="50.626,50.626 50.626,64.626 64.626,64.626 64.626,50.626" style="fill:none;stroke-width:0.050000mm;stroke:black"/>
<polygon points="31.576,50.626 31.576,64.626 45.576,64.626 45.576,50.626" style="fill:none;stroke-width:0.050000mm;stroke:black"/>
<polygon points="12.525,50.626 12.525,64.626 26.526,64.626 26.526,50.626" style="fill:none;stroke-width:0.050000mm;stroke:black"/>
<polygon points="107.775,31.576 107.775,45.576 121.775,45.576 121.775,31.576" style="fill:none;stroke-width:0.050000mm;stroke:black"/>
<polygon points="88.726,31.576 88.726,45.576 102.726,45.576 102.726,31.576" style="fill:none;stroke-width:0.050000mm;stroke:black"/>
<polygon points="69.676,31.576 69.676,45.576 83.676,45.576 83.676,31.576" style="fill:none;stroke-width:0.050000mm;stroke:black"/>
<polygon points="50.626,31.576 50.626,45.576 64.626,45.576 64.626,31.576" style="fill:none;stroke-width:0.050000mm;stroke:black"/>
<polygon points="31.576,31.576 31.576,45.576 45.576,45.576 45.576,31.576" style="fill:none;stroke-width:0.050000mm;stroke:black"/>
<polygon points="12.525,31.576 12.525,45.576 26.526,45.576 26.526,31.576" style="fill:none;stroke-width:0.050000mm;stroke:black"/>
<polygon points="107.775,12.525 107.775,26.526 121.775,26.526 121.775,12.525" style="fill:none;stroke-width:0.050000mm;stroke:black"/>
<polygon points="88.726,12.525 88.726,26.526 102.726,26.526 102.726,12.525" style="fill:none;stroke-width:0.050000mm;stroke:black"/>
<polygon points="69.676,12.525 69.676,26.526 83.676,26.526 83.676,12.525" style="fill:none;stroke-width:0.050000mm;stroke:black"/>
<polygon points="50.626,12.525 50.626,26.526 64.626,26.526 64.626,12.525" style="fill:none;stroke-width:0.050000mm;stroke:black"/>
<polygon points="31.576,12.525 31.576,26.526 45.576,26.526 45.576,12.525" style="fill:none;stroke-width:0.050000mm;stroke:black"/>
<polygon points="12.525,12.525 12.525,26.526 26.526,26.526 26.526,12.525" style="fill:none;stroke-width:0.050000mm;stroke:black"/>
</svg>
