  0
SECTION
  2
HEADER
  9
$ACADVER
  1
AC1009
  9
$EXTMIN
 10
0.0
 20
0.0
 30
0.0
  9
$EXTMAX
 10
1000.0
 20
1000.0
 30
0.0
  9
$FILLMODE
 70
 0
  9
$SPLFRAME
 70
 1
  0
ENDSEC
  0
SECTION
  2
TABLES
  0
TABLE
  2
LAYER
 70
1
  0
LAYER
  2
0
 70
     0
 62
     7
  6
CONTINUOUS
  0
ENDTAB
  0
ENDSEC
  0
SECTION
  2
ENTITIES
  0
LINE
  8
0
 62
     0
 10
121.395
 20
86.3353
 30
0.0
 11
121.631
 21
86.3258
 31
0.0
  0
LINE
  8
0
 62
     0
 10
121.631
 20
86.3258
 30
0.0
 11
121.865
 21
86.2997
 31
0.0
  0
LINE
  8
0
 62
     0
 10
121.865
 20
86.2997
 30
0.0
 11
122.097
 21
86.2528
 31
0.0
  0
LINE
  8
0
 62
     0
 10
122.097
 20
86.2528
 30
0.0
 11
122.323
 21
86.1893
 31
0.0
  0
LINE
  8
0
 62
     0
 10
122.323
 20
86.1893
 30
0.0
 11
122.545
 21
86.1067
 31
0.0
  0
LINE
  8
0
 62
     0
 10
122.545
 20
86.1067
 30
0.0
 11
122.757
 21
86.009
 31
0.0
  0
LINE
  8
0
 62
     0
 10
122.757
 20
86.009
 30
0.0
 11
122.964
 21
85.8933
 31
0.0
  0
LINE
  8
0
 62
     0
 10
122.964
 20
85.8933
 30
0.0
 11
123.159
 21
85.7635
 31
0.0
  0
LINE
  8
0
 62
     0
 10
123.159
 20
85.7635
 30
0.0
 11
123.344
 21
85.6174
 31
0.0
  0
LINE
  8
0
 62
     0
 10
123.344
 20
85.6174
 30
0.0
 11
123.518
 21
85.4576
 31
0.0
  0
LINE
  8
0
 62
     0
 10
123.518
 20
85.4576
 30
0.0
 11
123.678
 21
85.284
 31
0.0
  0
LINE
  8
0
 62
     0
 10
123.678
 20
85.284
 30
0.0
 11
123.824
 21
85.0995
 31
0.0
  0
LINE
  8
0
 62
     0
 10
123.824
 20
85.0995
 30
0.0
 11
123.953
 21
84.9037
 31
0.0
  0
LINE
  8
0
 62
     0
 10
123.953
 20
84.9037
 30
0.0
 11
124.069
 21
84.697
 31
0.0
  0
LINE
  8
0
 62
     0
 10
124.069
 20
84.697
 30
0.0
 11
124.168
 21
84.4832
 31
0.0
  0
LINE
  8
0
 62
     0
 10
124.168
 20
84.4832
 30
0.0
 11
124.249
 21
84.2627
 31
0.0
  0
LINE
  8
0
 62
     0
 10
124.249
 20
84.2627
 30
0.0
 11
124.313
 21
84.0355
 31
0.0
  0
LINE
  8
0
 62
     0
 10
124.313
 20
84.0355
 30
0.0
 11
124.36
 21
83.8055
 31
0.0
  0
LINE
  8
0
 62
     0
 10
124.36
 20
83.8055
 30
0.0
 11
124.386
 21
83.5713
 31
0.0
  0
LINE
  8
0
 62
     0
 10
124.386
 20
83.5713
 30
0.0
 11
124.395
 21
83.3356
 31
0.0
  0
LINE
  8
0
 62
     0
 10
124.395
 20
83.3356
 30
0.0
 11
124.395
 21
3.13366
 31
0.0
  0
LINE
  8
0
 62
     0
 10
124.395
 20
3.13366
 30
0.0
 11
124.386
 21
2.89939
 31
0.0
  0
LINE
  8
0
 62
     0
 10
124.386
 20
2.89939
 30
0.0
 11
124.36
 21
2.66513
 31
0.0
  0
LINE
  8
0
 62
     0
 10
124.36
 20
2.66513
 30
0.0
 11
124.313
 21
2.43362
 31
0.0
  0
LINE
  8
0
 62
     0
 10
124.313
 20
2.43362
 30
0.0
 11
124.249
 21
2.20762
 31
0.0
  0
LINE
  8
0
 62
     0
 10
124.249
 20
2.20762
 30
0.0
 11
124.168
 21
1.98575
 31
0.0
  0
LINE
  8
0
 62
     0
 10
124.168
 20
1.98575
 30
0.0
 11
124.069
 21
1.77353
 31
0.0
  0
LINE
  8
0
 62
     0
 10
124.069
 20
1.77353
 30
0.0
 11
123.953
 21
1.56683
 31
0.0
  0
LINE
  8
0
 62
     0
 10
123.953
 20
1.56683
 30
0.0
 11
123.824
 21
1.37115
 31
0.0
  0
LINE
  8
0
 62
     0
 10
123.824
 20
1.37115
 30
0.0
 11
123.678
 21
1.18649
 31
0.0
  0
LINE
  8
0
 62
     0
 10
123.678
 20
1.18649
 30
0.0
 11
123.518
 21
1.01286
 31
0.0
  0
LINE
  8
0
 62
     0
 10
123.518
 20
1.01286
 30
0.0
 11
123.344
 21
0.853006
 31
0.0
  0
LINE
  8
0
 62
     0
 10
123.344
 20
0.853006
 30
0.0
 11
123.159
 21
0.706935
 31
0.0
  0
LINE
  8
0
 62
     0
 10
123.159
 20
0.706935
 30
0.0
 11
122.964
 21
0.577398
 31
0.0
  0
LINE
  8
0
 62
     0
 10
122.964
 20
0.577398
 30
0.0
 11
122.757
 21
0.461641
 31
0.0
  0
LINE
  8
0
 62
     0
 10
122.757
 20
0.461641
 30
0.0
 11
122.545
 21
0.362423
 31
0.0
  0
LINE
  8
0
 62
     0
 10
122.545
 20
0.362423
 30
0.0
 11
122.323
 21
0.28112
 31
0.0
  0
LINE
  8
0
 62
     0
 10
122.323
 20
0.28112
 30
0.0
 11
122.097
 21
0.21773
 31
0.0
  0
LINE
  8
0
 62
     0
 10
122.097
 20
0.21773
 30
0.0
 11
121.865
 21
0.170877
 31
0.0
  0
LINE
  8
0
 62
     0
 10
121.865
 20
0.170877
 30
0.0
 11
121.631
 21
0.144694
 31
0.0
  0
LINE
  8
0
 62
     0
 10
121.631
 20
0.144694
 30
0.0
 11
121.395
 21
0.13367
 31
0.0
  0
LINE
  8
0
 62
     0
 10
121.395
 20
0.13367
 30
0.0
 11
3.09507
 21
0.13367
 31
0.0
  0
LINE
  8
0
 62
     0
 10
3.09507
 20
0.13367
 30
0.0
 11
2.85943
 21
0.144694
 31
0.0
  0
LINE
  8
0
 62
     0
 10
2.85943
 20
0.144694
 30
0.0
 11
2.62516
 21
0.170877
 31
0.0
  0
LINE
  8
0
 62
     0
 10
2.62516
 20
0.170877
 30
0.0
 11
2.39503
 21
0.21773
 31
0.0
  0
LINE
  8
0
 62
     0
 10
2.39503
 20
0.21773
 30
0.0
 11
2.16765
 21
0.28112
 31
0.0
  0
LINE
  8
0
 62
     0
 10
2.16765
 20
0.28112
 30
0.0
 11
1.94717
 21
0.362423
 31
0.0
  0
LINE
  8
0
 62
     0
 10
1.94717
 20
0.362423
 30
0.0
 11
1.73357
 21
0.461641
 31
0.0
  0
LINE
  8
0
 62
     0
 10
1.73357
 20
0.461641
 30
0.0
 11
1.52687
 21
0.577398
 31
0.0
  0
LINE
  8
0
 62
     0
 10
1.52687
 20
0.577398
 30
0.0
 11
1.33119
 21
0.706935
 31
0.0
  0
LINE
  8
0
 62
     0
 10
1.33119
 20
0.706935
 30
0.0
 11
1.14653
 21
0.853006
 31
0.0
  0
LINE
  8
0
 62
     0
 10
1.14653
 20
0.853006
 30
0.0
 11
0.972894
 21
1.01286
 31
0.0
  0
LINE
  8
0
 62
     0
 10
0.972894
 20
1.01286
 30
0.0
 11
0.813043
 21
1.18649
 31
0.0
  0
LINE
  8
0
 62
     0
 10
0.813043
 20
1.18649
 30
0.0
 11
0.666972
 21
1.37115
 31
0.0
  0
LINE
  8
0
 62
     0
 10
0.666972
 20
1.37115
 30
0.0
 11
0.537436
 21
1.56683
 31
0.0
  0
LINE
  8
0
 62
     0
 10
0.537436
 20
1.56683
 30
0.0
 11
0.421679
 21
1.77353
 31
0.0
  0
LINE
  8
0
 62
     0
 10
0.421679
 20
1.77353
 30
0.0
 11
0.323839
 21
1.98575
 31
0.0
  0
LINE
  8
0
 62
     0
 10
0.323839
 20
1.98575
 30
0.0
 11
0.241157
 21
2.20762
 31
0.0
  0
LINE
  8
0
 62
     0
 10
0.241157
 20
2.20762
 30
0.0
 11
0.177767
 21
2.43362
 31
0.0
  0
LINE
  8
0
 62
     0
 10
0.177767
 20
2.43362
 30
0.0
 11
0.130914
 21
2.66513
 31
0.0
  0
LINE
  8
0
 62
     0
 10
0.130914
 20
2.66513
 30
0.0
 11
0.104731
 21
2.89939
 31
0.0
  0
LINE
  8
0
 62
     0
 10
0.104731
 20
2.89939
 30
0.0
 11
0.0950846
 21
3.13504
 31
0.0
  0
LINE
  8
0
 62
     0
 10
0.0950846
 20
3.13504
 30
0.0
 11
0.0950846
 21
83.3356
 31
0.0
  0
LINE
  8
0
 62
     0
 10
0.0950846
 20
83.3356
 30
0.0
 11
0.104731
 21
83.5713
 31
0.0
  0
LINE
  8
0
 62
     0
 10
0.104731
 20
83.5713
 30
0.0
 11
0.130914
 21
83.8055
 31
0.0
  0
LINE
  8
0
 62
     0
 10
0.130914
 20
83.8055
 30
0.0
 11
0.177767
 21
84.0355
 31
0.0
  0
LINE
  8
0
 62
     0
 10
0.177767
 20
84.0355
 30
0.0
 11
0.241157
 21
84.2627
 31
0.0
  0
LINE
  8
0
 62
     0
 10
0.241157
 20
84.2627
 30
0.0
 11
0.323839
 21
84.4832
 31
0.0
  0
LINE
  8
0
 62
     0
 10
0.323839
 20
84.4832
 30
0.0
 11
0.421679
 21
84.697
 31
0.0
  0
LINE
  8
0
 62
     0
 10
0.421679
 20
84.697
 30
0.0
 11
0.537436
 21
84.9037
 31
0.0
  0
LINE
  8
0
 62
     0
 10
0.537436
 20
84.9037
 30
0.0
 11
0.666972
 21
85.0995
 31
0.0
  0
LINE
  8
0
 62
     0
 10
0.666972
 20
85.0995
 30
0.0
 11
0.813043
 21
85.284
 31
0.0
  0
LINE
  8
0
 62
     0
 10
0.813043
 20
85.284
 30
0.0
 11
0.972894
 21
85.4576
 31
0.0
  0
LINE
  8
0
 62
     0
 10
0.972894
 20
85.4576
 30
0.0
 11
1.14653
 21
85.6174
 31
0.0
  0
LINE
  8
0
 62
     0
 10
1.14653
 20
85.6174
 30
0.0
 11
1.33119
 21
85.7635
 31
0.0
  0
LINE
  8
0
 62
     0
 10
1.33119
 20
85.7635
 30
0.0
 11
1.52687
 21
85.8933
 31
0.0
  0
LINE
  8
0
 62
     0
 10
1.52687
 20
85.8933
 30
0.0
 11
1.73357
 21
86.009
 31
0.0
  0
LINE
  8
0
 62
     0
 10
1.73357
 20
86.009
 30
0.0
 11
1.94717
 21
86.1067
 31
0.0
  0
LINE
  8
0
 62
     0
 10
1.94717
 20
86.1067
 30
0.0
 11
2.16765
 21
86.1893
 31
0.0
  0
LINE
  8
0
 62
     0
 10
2.16765
 20
86.1893
 30
0.0
 11
2.39503
 21
86.2528
 31
0.0
  0
LINE
  8
0
 62
     0
 10
2.39503
 20
86.2528
 30
0.0
 11
2.62516
 21
86.2997
 31
0.0
  0
LINE
  8
0
 62
     0
 10
2.62516
 20
86.2997
 30
0.0
 11
2.85943
 21
86.3258
 31
0.0
  0
LINE
  8
0
 62
     0
 10
2.85943
 20
86.3258
 30
0.0
 11
3.09507
 21
86.3353
 31
0.0
  0
LINE
  8
0
 62
     0
 10
3.09507
 20
86.3353
 30
0.0
 11
121.395
 21
86.3353
 31
0.0
  0
LINE
  8
0
 62
     0
 10
102.869
 20
21.66
 30
0.0
 11
116.87
 21
21.66
 31
0.0
  0
LINE
  8
0
 62
     0
 10
116.87
 20
21.66
 30
0.0
 11
116.87
 21
7.6605
 31
0.0
  0
LINE
  8
0
 62
     0
 10
116.87
 20
7.6605
 30
0.0
 11
102.869
 21
7.6605
 31
0.0
  0
LINE
  8
0
 62
     0
 10
102.869
 20
7.6605
 30
0.0
 11
102.869
 21
21.66
 31
0.0
  0
LINE
  8
0
 62
     0
 10
83.8207
 20
21.66
 30
0.0
 11
97.82
 21
21.66
 31
0.0
  0
LINE
  8
0
 62
     0
 10
97.82
 20
21.66
 30
0.0
 11
97.82
 21
7.6605
 31
0.0
  0
LINE
  8
0
 62
     0
 10
97.82
 20
7.6605
 30
0.0
 11
83.8207
 21
7.6605
 31
0.0
  0
LINE
  8
0
 62
     0
 10
83.8207
 20
7.6605
 30
0.0
 11
83.8207
 21
21.66
 31
0.0
  0
LINE
  8
0
 62
     0
 10
64.7707
 20
21.66
 30
0.0
 11
78.77
 21
21.66
 31
0.0
  0
LINE
  8
0
 62
     0
 10
78.77
 20
21.66
 30
0.0
 11
78.77
 21
7.6605
 31
0.0
  0
LINE
  8
0
 62
     0
 10
78.77
 20
7.6605
 30
0.0
 11
64.7707
 21
7.6605
 31
0.0
  0
LINE
  8
0
 62
     0
 10
64.7707
 20
7.6605
 30
0.0
 11
64.7707
 21
21.66
 31
0.0
  0
LINE
  8
0
 62
     0
 10
45.7207
 20
21.66
 30
0.0
 11
59.72
 21
21.66
 31
0.0
  0
LINE
  8
0
 62
     0
 10
59.72
 20
21.66
 30
0.0
 11
59.72
 21
7.6605
 31
0.0
  0
LINE
  8
0
 62
     0
 10
59.72
 20
7.6605
 30
0.0
 11
45.7207
 21
7.6605
 31
0.0
  0
LINE
  8
0
 62
     0
 10
45.7207
 20
7.6605
 30
0.0
 11
45.7207
 21
21.66
 31
0.0
  0
LINE
  8
0
 62
     0
 10
26.6706
 20
21.66
 30
0.0
 11
40.67
 21
21.66
 31
0.0
  0
LINE
  8
0
 62
     0
 10
40.67
 20
21.66
 30
0.0
 11
40.67
 21
7.6605
 31
0.0
  0
LINE
  8
0
 62
     0
 10
40.67
 20
7.6605
 30
0.0
 11
26.6706
 21
7.6605
 31
0.0
  0
LINE
  8
0
 62
     0
 10
26.6706
 20
7.6605
 30
0.0
 11
26.6706
 21
21.66
 31
0.0
  0
LINE
  8
0
 62
     0
 10
7.61919
 20
21.66
 30
0.0
 11
21.6201
 21
21.66
 31
0.0
  0
LINE
  8
0
 62
     0
 10
21.6201
 20
21.66
 30
0.0
 11
21.6201
 21
7.6605
 31
0.0
  0
LINE
  8
0
 62
     0
 10
21.6201
 20
7.6605
 30
0.0
 11
7.61919
 21
7.6605
 31
0.0
  0
LINE
  8
0
 62
     0
 10
7.61919
 20
7.6605
 30
0.0
 11
7.61919
 21
21.66
 31
0.0
  0
LINE
  8
0
 62
     0
 10
102.869
 20
40.7099
 30
0.0
 11
116.87
 21
40.7099
 31
0.0
  0
LINE
  8
0
 62
     0
 10
116.87
 20
40.7099
 30
0.0
 11
116.87
 21
26.7105
 31
0.0
  0
LINE
  8
0
 62
     0
 10
116.87
 20
26.7105
 30
0.0
 11
102.869
 21
26.7105
 31
0.0
  0
LINE
  8
0
 62
     0
 10
102.869
 20
26.7105
 30
0.0
 11
102.869
 21
40.7099
 31
0.0
  0
LINE
  8
0
 62
     0
 10
83.8207
 20
40.7099
 30
0.0
 11
97.82
 21
40.7099
 31
0.0
  0
LINE
  8
0
 62
     0
 10
97.82
 20
40.7099
 30
0.0
 11
97.82
 21
26.7105
 31
0.0
  0
LINE
  8
0
 62
     0
 10
97.82
 20
26.7105
 30
0.0
 11
83.8207
 21
26.7105
 31
0.0
  0
LINE
  8
0
 62
     0
 10
83.8207
 20
26.7105
 30
0.0
 11
83.8207
 21
40.7099
 31
0.0
  0
LINE
  8
0
 62
     0
 10
64.7707
 20
40.7099
 30
0.0
 11
78.77
 21
40.7099
 31
0.0
  0
LINE
  8
0
 62
     0
 10
78.77
 20
40.7099
 30
0.0
 11
78.77
 21
26.7105
 31
0.0
  0
LINE
  8
0
 62
     0
 10
78.77
 20
26.7105
 30
0.0
 11
64.7707
 21
26.7105
 31
0.0
  0
LINE
  8
0
 62
     0
 10
64.7707
 20
26.7105
 30
0.0
 11
64.7707
 21
40.7099
 31
0.0
  0
LINE
  8
0
 62
     0
 10
45.7207
 20
40.7099
 30
0.0
 11
59.72
 21
40.7099
 31
0.0
  0
LINE
  8
0
 62
     0
 10
59.72
 20
40.7099
 30
0.0
 11
59.72
 21
26.7105
 31
0.0
  0
LINE
  8
0
 62
     0
 10
59.72
 20
26.7105
 30
0.0
 11
45.7207
 21
26.7105
 31
0.0
  0
LINE
  8
0
 62
     0
 10
45.7207
 20
26.7105
 30
0.0
 11
45.7207
 21
40.7099
 31
0.0
  0
LINE
  8
0
 62
     0
 10
26.6706
 20
40.7099
 30
0.0
 11
40.67
 21
40.7099
 31
0.0
  0
LINE
  8
0
 62
     0
 10
40.67
 20
40.7099
 30
0.0
 11
40.67
 21
26.7105
 31
0.0
  0
LINE
  8
0
 62
     0
 10
40.67
 20
26.7105
 30
0.0
 11
26.6706
 21
26.7105
 31
0.0
  0
LINE
  8
0
 62
     0
 10
26.6706
 20
26.7105
 30
0.0
 11
26.6706
 21
40.7099
 31
0.0
  0
LINE
  8
0
 62
     0
 10
7.61919
 20
40.7099
 30
0.0
 11
21.6201
 21
40.7099
 31
0.0
  0
LINE
  8
0
 62
     0
 10
21.6201
 20
40.7099
 30
0.0
 11
21.6201
 21
26.7105
 31
0.0
  0
LINE
  8
0
 62
     0
 10
21.6201
 20
26.7105
 30
0.0
 11
7.61919
 21
26.7105
 31
0.0
  0
LINE
  8
0
 62
     0
 10
7.61919
 20
26.7105
 30
0.0
 11
7.61919
 21
40.7099
 31
0.0
  0
LINE
  8
0
 62
     0
 10
102.869
 20
59.7598
 30
0.0
 11
116.87
 21
59.7598
 31
0.0
  0
LINE
  8
0
 62
     0
 10
116.87
 20
59.7598
 30
0.0
 11
116.87
 21
45.7606
 31
0.0
  0
LINE
  8
0
 62
     0
 10
116.87
 20
45.7606
 30
0.0
 11
102.869
 21
45.7606
 31
0.0
  0
LINE
  8
0
 62
     0
 10
102.869
 20
45.7606
 30
0.0
 11
102.869
 21
59.7598
 31
0.0
  0
LINE
  8
0
 62
     0
 10
83.8207
 20
59.7598
 30
0.0
 11
97.82
 21
59.7598
 31
0.0
  0
LINE
  8
0
 62
     0
 10
97.82
 20
59.7598
 30
0.0
 11
97.82
 21
45.7606
 31
0.0
  0
LINE
  8
0
 62
     0
 10
97.82
 20
45.7606
 30
0.0
 11
83.8207
 21
45.7606
 31
0.0
  0
LINE
  8
0
 62
     0
 10
83.8207
 20
45.7606
 30
0.0
 11
83.8207
 21
59.7598
 31
0.0
  0
LINE
  8
0
 62
     0
 10
64.7707
 20
59.7598
 30
0.0
 11
78.77
 21
59.7598
 31
0.0
  0
LINE
  8
0
 62
     0
 10
78.77
 20
59.7598
 30
0.0
 11
78.77
 21
45.7606
 31
0.0
  0
LINE
  8
0
 62
     0
 10
78.77
 20
45.7606
 30
0.0
 11
64.7707
 21
45.7606
 31
0.0
  0
LINE
  8
0
 62
     0
 10
64.7707
 20
45.7606
 30
0.0
 11
64.7707
 21
59.7598
 31
0.0
  0
LINE
  8
0
 62
     0
 10
45.7207
 20
59.7598
 30
0.0
 11
59.72
 21
59.7598
 31
0.0
  0
LINE
  8
0
 62
     0
 10
59.72
 20
59.7598
 30
0.0
 11
59.72
 21
45.7606
 31
0.0
  0
LINE
  8
0
 62
     0
 10
59.72
 20
45.7606
 30
0.0
 11
45.7207
 21
45.7606
 31
0.0
  0
LINE
  8
0
 62
     0
 10
45.7207
 20
45.7606
 30
0.0
 11
45.7207
 21
59.7598
 31
0.0
  0
LINE
  8
0
 62
     0
 10
26.6706
 20
59.7598
 30
0.0
 11
40.67
 21
59.7598
 31
0.0
  0
LINE
  8
0
 62
     0
 10
40.67
 20
59.7598
 30
0.0
 11
40.67
 21
45.7606
 31
0.0
  0
LINE
  8
0
 62
     0
 10
40.67
 20
45.7606
 30
0.0
 11
26.6706
 21
45.7606
 31
0.0
  0
LINE
  8
0
 62
     0
 10
26.6706
 20
45.7606
 30
0.0
 11
26.6706
 21
59.7598
 31
0.0
  0
LINE
  8
0
 62
     0
 10
7.61919
 20
59.7598
 30
0.0
 11
21.6201
 21
59.7598
 31
0.0
  0
LINE
  8
0
 62
     0
 10
21.6201
 20
59.7598
 30
0.0
 11
21.6201
 21
45.7606
 31
0.0
  0
LINE
  8
0
 62
     0
 10
21.6201
 20
45.7606
 30
0.0
 11
7.61919
 21
45.7606
 31
0.0
  0
LINE
  8
0
 62
     0
 10
7.61919
 20
45.7606
 30
0.0
 11
7.61919
 21
59.7598
 31
0.0
  0
LINE
  8
0
 62
     0
 10
102.869
 20
78.8113
 30
0.0
 11
116.87
 21
78.8113
 31
0.0
  0
LINE
  8
0
 62
     0
 10
116.87
 20
78.8113
 30
0.0
 11
116.87
 21
64.8106
 31
0.0
  0
LINE
  8
0
 62
     0
 10
116.87
 20
64.8106
 30
0.0
 11
102.869
 21
64.8106
 31
0.0
  0
LINE
  8
0
 62
     0
 10
102.869
 20
64.8106
 30
0.0
 11
102.869
 21
78.8113
 31
0.0
  0
LINE
  8
0
 62
     0
 10
83.8207
 20
78.8113
 30
0.0
 11
97.82
 21
78.8113
 31
0.0
  0
LINE
  8
0
 62
     0
 10
97.82
 20
78.8113
 30
0.0
 11
97.82
 21
64.8106
 31
0.0
  0
LINE
  8
0
 62
     0
 10
97.82
 20
64.8106
 30
0.0
 11
83.8207
 21
64.8106
 31
0.0
  0
LINE
  8
0
 62
     0
 10
83.8207
 20
64.8106
 30
0.0
 11
83.8207
 21
78.8113
 31
0.0
  0
LINE
  8
0
 62
     0
 10
64.7707
 20
78.8113
 30
0.0
 11
78.77
 21
78.8113
 31
0.0
  0
LINE
  8
0
 62
     0
 10
78.77
 20
78.8113
 30
0.0
 11
78.77
 21
64.8106
 31
0.0
  0
LINE
  8
0
 62
     0
 10
78.77
 20
64.8106
 30
0.0
 11
64.7707
 21
64.8106
 31
0.0
  0
LINE
  8
0
 62
     0
 10
64.7707
 20
64.8106
 30
0.0
 11
64.7707
 21
78.8113
 31
0.0
  0
LINE
  8
0
 62
     0
 10
45.7207
 20
78.8113
 30
0.0
 11
59.72
 21
78.8113
 31
0.0
  0
LINE
  8
0
 62
     0
 10
59.72
 20
78.8113
 30
0.0
 11
59.72
 21
64.8106
 31
0.0
  0
LINE
  8
0
 62
     0
 10
59.72
 20
64.8106
 30
0.0
 11
45.7207
 21
64.8106
 31
0.0
  0
LINE
  8
0
 62
     0
 10
45.7207
 20
64.8106
 30
0.0
 11
45.7207
 21
78.8113
 31
0.0
  0
LINE
  8
0
 62
     0
 10
26.6706
 20
78.8113
 30
0.0
 11
40.67
 21
78.8113
 31
0.0
  0
LINE
  8
0
 62
     0
 10
40.67
 20
78.8113
 30
0.0
 11
40.67
 21
64.8106
 31
0.0
  0
LINE
  8
0
 62
     0
 10
40.67
 20
64.8106
 30
0.0
 11
26.6706
 21
64.8106
 31
0.0
  0
LINE
  8
0
 62
     0
 10
26.6706
 20
64.8106
 30
0.0
 11
26.6706
 21
78.8113
 31
0.0
  0
LINE
  8
0
 62
     0
 10
7.61919
 20
78.8113
 30
0.0
 11
21.6201
 21
78.8113
 31
0.0
  0
LINE
  8
0
 62
     0
 10
21.6201
 20
78.8113
 30
0.0
 11
21.6201
 21
64.8106
 31
0.0
  0
LINE
  8
0
 62
     0
 10
21.6201
 20
64.8106
 30
0.0
 11
7.61919
 21
64.8106
 31
0.0
  0
LINE
  8
0
 62
     0
 10
7.61919
 20
64.8106
 30
0.0
 11
7.61919
 21
78.8113
 31
0.0
  0
ENDSEC
  0
EOF
